<svg width="14" height="17" viewBox="0 0 14 17" fill="none" xmlns="http://www.w3.org/2000/svg">
<rect width="14" height="17" fill="white" style="fill:white;fill-opacity:1;"/>
<path d="M13 1H1V2H13V1Z" fill="black" style="fill:black;fill-opacity:1;"/>
<path d="M2 1H1V11H2V1Z" fill="black" style="fill:black;fill-opacity:1;"/>
<path d="M13 1H12V11H13V1Z" fill="black" style="fill:black;fill-opacity:1;"/>
<path d="M13 10H1V11H13V10Z" fill="black" style="fill:black;fill-opacity:1;"/>
<path d="M9 10H5V13H9V10Z" fill="black" style="fill:black;fill-opacity:1;"/>
<path d="M12 12H2V13H12V12Z" fill="black" style="fill:black;fill-opacity:1;"/>
<path d="M3 12H2V16H3V12Z" fill="black" style="fill:black;fill-opacity:1;"/>
<path d="M12 12H11V16H12V12Z" fill="black" style="fill:black;fill-opacity:1;"/>
<path d="M12 15H2V16H12V15Z" fill="black" style="fill:black;fill-opacity:1;"/>
<path d="M3 13H1V16H3V13Z" fill="black" style="fill:black;fill-opacity:1;"/>
<path d="M13 13H11V16H13V13Z" fill="black" style="fill:black;fill-opacity:1;"/>
<path d="M13 13H11V16H13V13Z" fill="black" style="fill:black;fill-opacity:1;"/>
<path d="M4 12H2V14H4V12Z" fill="black" style="fill:black;fill-opacity:1;"/>
<path d="M6 12H5V14H6V12Z" fill="black" style="fill:black;fill-opacity:1;"/>
<path d="M8 12H7V14H8V12Z" fill="black" style="fill:black;fill-opacity:1;"/>
<path d="M10 12H9V14H10V12Z" fill="black" style="fill:black;fill-opacity:1;"/>
<path d="M12 14H10V16H12V14Z" fill="black" style="fill:black;fill-opacity:1;"/>
<path d="M9 14H8V16H9V14Z" fill="black" style="fill:black;fill-opacity:1;"/>
<path d="M7 14H6V16H7V14Z" fill="black" style="fill:black;fill-opacity:1;"/>
<path d="M5 14H4V16H5V14Z" fill="black" style="fill:black;fill-opacity:1;"/>
<path d="M12 2H2V10H12V2Z" fill="white" style="fill:white;fill-opacity:1;"/>
<path d="M4 14H3V15H4V14Z" fill="white" style="fill:white;fill-opacity:1;"/>
<path d="M5 13H4V14H5V13Z" fill="white" style="fill:white;fill-opacity:1;"/>
<path d="M6 14H5V15H6V14Z" fill="white" style="fill:white;fill-opacity:1;"/>
<path d="M7 13H6V14H7V13Z" fill="white" style="fill:white;fill-opacity:1;"/>
<path d="M8 14H7V15H8V14Z" fill="white" style="fill:white;fill-opacity:1;"/>
<path d="M9 13H8V14H9V13Z" fill="white" style="fill:white;fill-opacity:1;"/>
<path d="M10 14H9V15H10V14Z" fill="white" style="fill:white;fill-opacity:1;"/>
<path d="M11 13H10V14H11V13Z" fill="white" style="fill:white;fill-opacity:1;"/>
<path d="M11 3H3V9H11V3Z" fill="black" style="fill:black;fill-opacity:1;"/>
<path d="M4 4H3V5H4V4Z" fill="white" style="fill:white;fill-opacity:1;"/>
<path d="M6 4H5V5H6V4Z" fill="white" style="fill:white;fill-opacity:1;"/>
<path d="M8 4H7V5H8V4Z" fill="white" style="fill:white;fill-opacity:1;"/>
<path d="M6 6H4V7H6V6Z" fill="white" style="fill:white;fill-opacity:1;"/>
<path d="M9 6H7V7H9V6Z" fill="white" style="fill:white;fill-opacity:1;"/>
</svg>
